<?xml version="1.0" encoding="utf-8"?>
<svg version="1.1" class="logo" xmlns="http://www.w3.org/2000/svg" xmlns:xlink="http://www.w3.org/1999/xlink" x="0" y="0" width="512" height="512" viewBox="0 0 512 512" xml:space="preserve">
<g fill="#00833E">
	<path d="M150.06,469.35c-2.97-1.62-5.2-3.51-6.69-5.66h14.86c0.32,0,0.48-0.12,0.48-0.36c0-0.27-0.73-0.98-2.19-2.12
		c-1.46-1.14-2.3-1.71-2.53-1.71c-0.26,0-0.42,0.05-0.5,0.16l-1.99,2.65h-11.19v-5.17l2.13-0.27l7.16-1.25
		c0.15-0.03,0.52,0.07,1.12,0.28c0.6,0.22,1.05,0.33,1.37,0.33c0.23,0,0.34-0.17,0.34-0.5c0-0.24-1.07-1.89-3.22-4.94
		c-7.33,2.66-14.65,4.56-21.97,5.71l-7.66,1.2l0.14,0.84l8.2-0.23l6.59-0.43l2.13-0.23v4.65h-19.66l1.06,1.86
		c1.37-0.32,2.49-0.48,3.35-0.48h9.31c-2.45,5.03-7.23,10.37-14.34,16.02l0.43,0.59c3.37-1.28,7.07-3.59,11.12-6.91v14.07
		l-0.18,5.28c0,0.17,0.07,0.31,0.2,0.44c0.14,0.13,0.27,0.19,0.41,0.19c0.05,0,0.09-0.01,0.14-0.02l2.13-0.79
		c0.74-0.27,1.11-0.58,1.11-0.93v-2.49h13.89v3.6c0,0.29,0.1,0.43,0.32,0.43c0.06,0,0.12-0.01,0.18-0.04l1.54-0.48
		c1.18-0.32,1.77-0.76,1.77-1.34v-14.66c0-0.18,0.17-0.46,0.5-0.83c0.33-0.37,0.5-0.61,0.5-0.73c0-0.2-0.07-0.35-0.23-0.48
		l-3.06-2.33c-0.15-0.12-0.32-0.18-0.5-0.18c-0.18,0-0.33,0.06-0.43,0.18l-1.38,1.54h-12.35l-3.49-1.4c2.45-2.49,4.65-5.4,6.59-8.72
		h1.07v4.19l-0.23,5.14c-0.01,0.27,0.08,0.41,0.29,0.41c0.06,0,0.12-0.01,0.18-0.02l1.68-0.41c1.24-0.27,1.85-0.71,1.84-1.31
		l-0.09-3.92v-4.08h1.25c2.1,5.24,6.58,9.55,13.46,12.91c0.95-1.53,2.72-2.41,5.3-2.65l0.09-0.75l-3.45-0.84
		C155.33,471.97,153.03,470.97,150.06,469.35z M131.72,475.19h13.89v5.14h-13.89V475.19z M131.72,481.74h13.89v5.98h-13.89V481.74z"
		/>
	<path d="M173.36,460.34c0.23,0.25,0.46,0.37,0.68,0.37c0.47,0,0.94-0.41,1.41-1.23c0.47-0.82,0.7-1.57,0.7-2.23
		c0-1.96-2.87-3.93-8.61-5.91l-0.36,0.75c2.31,2.36,3.86,4.26,4.65,5.71C172.63,459.24,173.14,460.09,173.36,460.34z"/>
	<path d="M168.26,468.99c0.59,1.01,1.06,1.52,1.43,1.52c0.44,0,0.89-0.35,1.35-1.07c0.46-0.71,0.69-1.4,0.69-2.06
		c0-2.04-2.7-3.91-8.09-5.6l-0.36,0.84C165.05,464.2,166.71,466.33,168.26,468.99z"/>
	<path d="M194.14,468.33h11.08c0.24,0,0.36-0.15,0.36-0.45c0-0.21-0.63-0.9-1.9-2.07c-1.27-1.17-1.98-1.76-2.13-1.76
		c-0.23,0-0.38,0.05-0.45,0.16l-2,2.74h-3.53v-6.28h9.25c0.24,0,0.36-0.12,0.36-0.36s-0.65-0.99-1.96-2.23
		c-1.31-1.25-2.06-1.87-2.26-1.87c-0.22,0-0.4,0.08-0.52,0.25l-1.95,2.83h-2.92v-4.96c0-0.18,0.26-0.48,0.77-0.88
		c0.51-0.41,0.77-0.7,0.77-0.88c0-0.41-1.75-1.04-5.25-1.9l0.11,3.85v4.78h-5.48v-4.92c0-0.23,0.2-0.55,0.6-0.96
		c0.4-0.42,0.6-0.68,0.6-0.78c0-0.3-0.18-0.5-0.54-0.61l-4.28-1.36l-0.14,0.09l0.14,3.29v5.26h-6.39c0.06,0.2,0.2,0.5,0.43,0.92
		c0.23,0.41,0.37,0.73,0.43,0.94c1.33-0.32,2.23-0.48,2.7-0.48h2.79v6.28h-7.14l1.77-5.3l-0.93-0.32l-1.95,4.44l-3.49,7.39
		l-1.9,3.72c-0.38,0.73-1.38,1.06-3.01,1l-1.86-0.07l-0.05,0.97c1.54,0.45,2.59,0.9,3.15,1.35c0.56,0.45,0.88,0.77,0.96,0.99
		c0.08,0.21,0.12,0.72,0.12,1.52c0,1.31-0.11,2.53-0.34,3.66c-0.22,1.13-0.34,1.77-0.34,1.92c0,1.09,0.39,1.98,1.18,2.7
		c0.79,0.71,1.63,1.07,2.54,1.07c1.01,0,1.52-0.54,1.52-1.63c0-0.53-0.15-1.73-0.45-3.59c-0.3-1.87-0.45-3.37-0.45-4.52v-0.52
		c0.09,0,0.21,0.06,0.36,0.18c0.15,0.12,0.26,0.18,0.34,0.18c0.17,0,1.08-0.58,2.74-1.73c1.66-1.16,3.47-2.63,5.42-4.43l0.09,0.05
		l0.05,11.21c0,1.39,0.21,2.36,0.63,2.9c0.42,0.54,1.22,0.95,2.39,1.24c1.17,0.28,3.36,0.42,6.58,0.42c3.94,0,6.78-0.19,8.51-0.58
		c1.73-0.39,3.15-1.42,4.25-3.09c-1.03-0.63-1.73-1.26-2.11-1.88c-0.38-0.62-0.61-2.59-0.7-5.91l-0.84-0.05
		c-0.62,3.16-1.14,5.15-1.55,5.98c-0.41,0.83-0.91,1.33-1.48,1.51c-0.57,0.17-2.38,0.26-5.42,0.26c-2.9,0-4.69-0.08-5.37-0.25
		c-0.68-0.17-1.06-0.58-1.14-1.26c-0.08-0.67-0.12-2.49-0.12-5.45h8.18v1.2c0,0.26,0.14,0.38,0.41,0.38c0.16,0,0.77-0.19,1.82-0.58
		c1.05-0.39,1.57-0.72,1.55-1.01l-0.18-2.74v-2.09c0-0.35,0.11-0.5,0.34-0.45c1.98,1.95,3.65,3.26,5.01,3.94
		c1.25-1.45,2.82-2.18,4.69-2.18l0.18-0.7C201.21,475.19,197.01,472.38,194.14,468.33z M172.23,481.42h-0.09v-0.29
		c0-0.62,0.14-1.65,0.41-3.11c0.27-1.45,0.43-2.25,0.48-2.4l2.31-7.3h6.93C180.13,473.03,176.79,477.39,172.23,481.42z
		 M186.48,460.67h5.48v6.28h-5.48V460.67z M192.94,479.61h-8.13v-4.87h8.13V479.61z M194.36,472.45c-0.21-0.27-0.42-0.41-0.64-0.41
		c-0.16,0-0.29,0.05-0.38,0.14l-1.11,1.16h-7l-1.18-0.97c1.09-1.69,1.91-3.04,2.47-4.03h6.03c0.29,1.07,0.92,2.42,1.9,4.03
		L194.36,472.45z"/>
	<path d="M250.02,466.32c-1.37-1.29-2.16-1.94-2.37-1.94c-0.21,0-0.36,0.05-0.43,0.14l-2.51,2.97h-6.64
		c1.86-1.9,4.02-4.52,6.5-7.86c0.79-1.07,1.25-1.65,1.38-1.73s0.73-0.15,1.79-0.19c0.59-0.03,0.88-0.25,0.88-0.66
		c0-0.33-0.81-0.97-2.43-1.92c-1.62-0.94-2.47-1.41-2.56-1.41h-0.18c-1.12,2.04-2.36,3.9-3.72,5.57c-2.19-2.1-3.51-3.15-3.97-3.15
		c-0.09,0-0.16,0.03-0.2,0.09l-2.24,2.72h-3.85v-5.14c0-0.15,0.29-0.43,0.88-0.83c0.59-0.4,0.88-0.7,0.88-0.9
		c0-0.26-0.3-0.48-0.9-0.68c-0.6-0.2-2.21-0.59-4.86-1.18c0.09,1.72,0.14,4.63,0.14,8.72h-12.19l1.43,1.81
		c1.26-0.27,2.48-0.41,3.67-0.41h7.05v7.14h-15.41l1.18,1.81c1.16-0.27,2.32-0.41,3.47-0.41h16.9c-1.34,1.34-3.17,2.94-5.48,4.78
		c-1.1-0.44-1.94-0.75-2.51-0.93l0.11,2.83c-2.99,2.21-5.41,3.87-7.25,5.01l-7.05,4.31l0.59,0.84c5.35-2.16,9.94-4.33,13.8-6.5v7.91
		c0,1.3,0.33,2.2,1.01,2.7c0.67,0.5,2.1,0.86,4.29,1.1c2.19,0.23,4.56,0.35,7.11,0.35c4.02,0,6.66-0.23,7.92-0.68
		c1.26-0.46,2.53-1.71,3.79-3.76c-1.66-1.34-2.5-2.79-2.51-4.35l-0.05-4.03l-0.97-0.12c-0.03,0.35-0.25,1.54-0.67,3.56
		c-0.41,2.02-0.78,3.33-1.09,3.92c-0.31,0.59-0.77,1-1.38,1.24c-0.61,0.23-2.17,0.35-4.68,0.35c-2.21,0-3.78-0.05-4.71-0.14
		c-0.94-0.09-1.84-0.15-2.72-0.17c-0.88-0.02-1.31-0.32-1.31-0.89v-4.01c6.18-1.8,11.02-3.66,14.52-5.6
		c0.24-0.24,0.54-0.36,0.88-0.36c0.24,0,0.6,0.08,1.09,0.25c0.48,0.16,0.8,0.25,0.95,0.25c0.3,0,0.45-0.17,0.45-0.5
		c0-0.15-0.39-0.68-1.18-1.59c-0.78-0.9-1.8-1.88-3.04-2.92c-3.38,3.17-7.97,6.17-13.77,8.99v-4.03c3.01-2.17,6.02-4.77,9.04-7.79
		h14.75c0.27,0,0.41-0.13,0.41-0.39C252.07,468.34,251.39,467.61,250.02,466.32z M233.02,467.49h-3.53v-7.14h9.56
		C237.97,461.79,235.96,464.17,233.02,467.49z"/>
	<path d="M296.29,476.03c-1.42-1.28-2.25-1.92-2.49-1.92c-0.21,0-0.35,0.05-0.43,0.16l-2.31,3.15h-10.62v-8.47h12.07
		c0.33,0,0.5-0.14,0.5-0.43c0-0.21-0.65-0.93-1.96-2.16c-1.31-1.23-2.11-1.85-2.39-1.85c-0.29,0-0.48,0.05-0.57,0.16l-2.22,2.74
		h-5.44v-7.88h15c0.32,0,0.48-0.19,0.48-0.56c0-0.15-0.76-0.94-2.28-2.36c-1.52-1.42-2.41-2.13-2.68-2.13
		c-0.26,0-0.44,0.08-0.54,0.23l-2.4,3.28h-20.37l1.9-3.15c0.21-0.36,0.38-0.58,0.5-0.66c0.12-0.07,0.44-0.19,0.96-0.34
		c0.52-0.15,0.78-0.38,0.78-0.68c0-0.24-0.17-0.45-0.52-0.63l-4.64-2.33l-0.3-0.05c-1.83,6.78-5.55,13.88-11.17,21.3l0.66,0.75h0.09
		c3.96-3.37,7.6-7.59,10.94-12.67h9.56v7.88h-7.25l-4.92-1.77l0.14,1.36v10.42h-8.34l1.2,2.11c1.48-0.47,2.83-0.7,4.03-0.7h15.14
		v5.01l-0.14,8.81c-0.01,0.35,0.09,0.52,0.32,0.52c0.06,0,0.12-0.01,0.18-0.04l3.01-0.97c0.58-0.18,0.86-0.54,0.84-1.07l-0.18-6.82
		v-5.44h17.35c0.42,0,0.64-0.2,0.64-0.59C298.42,478.05,297.71,477.32,296.29,476.03z M276.4,477.41h-8.13v-8.47h8.13V477.41z"/>
	<path d="M342.61,480.44c-1.31-0.96-2.05-1.44-2.23-1.44c-0.12,0-0.21,0.03-0.27,0.09l-1.86,2.13h-11.94v-0.27
		c0-0.15,0.2-0.34,0.59-0.56c0.39-0.22,0.59-0.39,0.59-0.51c0-0.16-0.22-0.35-0.66-0.56c3.73-1.65,6.09-2.48,7.09-2.5
		c1-0.02,1.5-0.19,1.5-0.51c0-0.21-0.64-0.77-1.92-1.69c-1.28-0.92-2.05-1.37-2.32-1.37c-0.23,0-0.42,0.06-0.59,0.18l-1.63,1.22
		h-17.01l1.11,1.86c1.26-0.32,2.17-0.48,2.74-0.48h12.14c-1.37,1.48-2.23,2.36-2.56,2.65h-0.22l-2.88-1.02l0.29,2.79v0.77h-18.49
		l0.93,1.9c1.99-0.33,3.19-0.5,3.58-0.5h13.98v5.1c0,0.12-0.09,0.27-0.27,0.44c-0.18,0.17-0.4,0.26-0.66,0.26
		c-1.22,0-3.21-0.31-5.96-0.93l-0.14,0.97c2.17,0.83,3.59,1.56,4.25,2.2c0.66,0.64,1.05,1.53,1.19,2.67
		c3.55-1.01,5.33-2.28,5.33-3.8v-6.91h17.92c0.23,0,0.34-0.14,0.34-0.43C344.57,481.98,343.92,481.4,342.61,480.44z"/>
	<path d="M306.62,475.8c0.74-0.7,1.13-2,1.18-3.89h31.08c-0.57,1.51-1.22,2.85-1.95,4.03l0.79,0.36
		c2.84-2.4,4.69-3.62,5.54-3.66c0.85-0.04,1.28-0.23,1.28-0.58c0-0.21-0.56-0.8-1.69-1.76c-1.12-0.96-1.77-1.44-1.94-1.44
		c-0.2,0-0.35,0.05-0.45,0.16L339,470.5l-0.97-0.05l1.25-13.59c0.01-0.24,0.31-0.51,0.89-0.79c0.58-0.29,0.87-0.55,0.87-0.8
		c0-0.26-0.08-0.44-0.25-0.54l-3.29-2.04c-0.09-0.06-0.22-0.09-0.41-0.09c-0.14,0-0.24,0.03-0.3,0.09l-1.52,1.63h-6.27l1.11,1.75
		c1.21-0.24,2.02-0.36,2.43-0.36h3.24l-0.32,3.58h-6.27l1.4,1.77c1.01-0.26,1.69-0.39,2.04-0.39h2.79l-0.43,4.65h-5.46l0.97,1.77
		c1.18-0.26,1.87-0.38,2.08-0.38h2.31l-0.32,3.8h-21.57l-0.14-4.03h7.18l0.41-0.14c0.05-0.06,0.07-0.13,0.07-0.2
		c0-0.26-0.52-0.88-1.55-1.88c-1.03-1-1.71-1.49-2.03-1.49c-0.18,0-0.29,0.03-0.34,0.09l-1.65,2.24h-2.24l-0.27-4.6h6.73l-0.75,0.84
		l0.66,0.45c1.84-1.1,3.67-2.4,5.48-3.9c0.82,1.03,1.43,1.88,1.86,2.56c-0.21,0.24-0.59,0.75-1.14,1.54
		c-0.55,0.78-1.03,1.35-1.42,1.7c-2.66-0.95-4.06-1.43-4.21-1.43l-0.29,0.59c0.95,0.53,2.03,1.29,3.22,2.29
		c-1.74,1.72-3.53,3.2-5.39,4.44l0.61,0.66c1.1-0.47,3.23-1.71,6.39-3.72c1.35,1.36,2.21,2.31,2.58,2.85
		c0.38,0.54,0.77,0.82,1.18,0.82c0.26,0,0.55-0.22,0.88-0.67c0.33-0.45,0.5-0.92,0.5-1.42c0-1.03-1.02-2.09-3.06-3.19l1.43-1.11
		c0.35-0.27,0.76-0.41,1.22-0.43c0.47-0.01,0.7-0.14,0.7-0.38c0-0.15-0.06-0.27-0.18-0.36l-2.24-1.63c0.41-0.03,0.73-0.26,0.95-0.69
		c0.22-0.43,0.34-0.83,0.34-1.19c0-0.86-0.67-1.86-2.02-2.99l2.26-2.18c0.05-0.03,0.27-0.09,0.68-0.19c0.41-0.1,0.61-0.23,0.61-0.4
		c0-0.33-1.1-1.16-3.29-2.47c-0.47,0.83-1.31,2.16-2.51,3.99l-3.67-1.52l-0.45,0.59c1.45,0.86,2.47,1.67,3.06,2.43
		c-0.94,1.16-2.03,2.4-3.28,3.72c-1.8-1.99-2.88-2.99-3.24-2.99c-0.17,0-0.31,0.07-0.43,0.2l-1.54,1.81h-2.36l-0.14-2.99l2.22-0.77
		c2.22-0.79,3.7-1.18,4.42-1.18c0.23,0,0.46,0.01,0.68,0.05c0.27-0.12,0.39-0.32,0.34-0.59l-2.6-3.06h-0.09
		c-1.07,1.26-2.76,2.57-5.05,3.94l-3.9-1.54c0.42,3.88,0.7,6.98,0.84,9.29l0.5,8.25h-1.81c0-0.59-0.06-1.37-0.18-2.36l-0.79,0.05
		c-0.01,1.16-0.35,2.29-1.01,3.38c-0.66,1.09-1.32,1.88-1.98,2.38c-0.67,0.5-1,0.99-1,1.47c0,0.95,0.56,1.43,1.7,1.43
		C305.16,476.85,305.88,476.5,306.62,475.8z"/>
	<path d="M371.24,453.44c0.24-0.15,0.54-0.26,0.91-0.33c0.36-0.07,0.63-0.18,0.82-0.33c0.03-0.07,0.05-0.15,0.05-0.22
		c0-0.24-0.52-0.68-1.56-1.32c-1.04-0.63-1.99-1.12-2.85-1.47c-1.68,2.6-3.78,5.07-6.32,7.41c-2.54,2.34-4.64,4.08-6.3,5.21
		l-7.57,5.19l0.66,0.75l6.68-3.15h0.18c0.02,0.9,0.02,1.83,0.02,2.79c0,2.99-0.05,6.16-0.16,9.52c0.21,0.32,0.46,0.48,0.75,0.48
		c0.22,0,0.7-0.23,1.43-0.68c0.17,0.94,0.25,1.73,0.25,2.38v8.59l-0.16,4.74c0,0.18,0.19,0.27,0.56,0.27c0.14,0,0.69-0.25,1.66-0.76
		c0.96-0.5,1.52-0.85,1.66-1.03c0.14-0.18,0.21-0.65,0.21-1.41h16.04v2.49c0,0.35,0.19,0.52,0.57,0.52c0.18,0,0.79-0.28,1.85-0.85
		c1.05-0.57,1.57-0.96,1.57-1.19l-0.14-9.42c0-0.38,0.01-0.68,0.02-0.91c0.01-0.22,0.23-0.48,0.66-0.76
		c0.42-0.28,0.63-0.56,0.63-0.83c0-0.29-0.69-0.8-2.06-1.54l1.24-0.52c0.82-0.35,1.36-0.73,1.63-1.16l-0.07-5.71
		c0-1.34,0.02-2.11,0.06-2.31c0.04-0.2,0.32-0.46,0.84-0.78c0.52-0.32,0.78-0.58,0.78-0.76c0-0.18-0.57-0.64-1.7-1.38
		c-1.13-0.74-1.82-1.11-2.06-1.11c-0.15,0-0.29,0.06-0.43,0.18l-1.63,1.38h-19.49l-2.65-1.38c1.47-0.86,2.79-1.7,3.99-2.52h0.3
		l0.77,1.5l2.51-0.48h11.33c0.3,0,0.45-0.13,0.45-0.38c0-0.12-0.61-0.75-1.82-1.9c-1.22-1.15-1.92-1.72-2.12-1.72
		c-0.15,0-0.29,0.07-0.41,0.2l-1.95,2.43h-8.45v-0.05c1.19-0.88,2.42-1.87,3.69-2.99l4.28-3.78c3.85,4.35,9.43,8.09,16.74,11.22
		c0.59-1.33,2.04-2.32,4.37-2.97l0.18-0.7C382.82,459.97,376,457.16,371.24,453.44z M378.19,488.65h-16.08v-3.85h16.08V488.65z
		 M378.19,483.42h-16.08v-3.53h16.08V483.42z M371.51,466.79h8.86v7.57h-6.44c0.77-0.69,1.48-1.36,2.13-2
		c0.65-0.64,1.16-1.17,1.52-1.58c0.36-0.41,0.61-0.65,0.75-0.71c0.14-0.07,0.37-0.15,0.7-0.25c0.33-0.1,0.5-0.3,0.5-0.6
		c0-0.07-0.01-0.15-0.02-0.23c-2.08-1.36-3.29-2.04-3.62-2.04h-0.14c-0.89,2.79-1.95,5.27-3.17,7.41h-1.06V466.79z M359.73,466.79
		h8.18v7.57h-8.18V466.79z M359.96,475.76h20.41l-0.05,1.24c-0.3-0.15-0.54-0.22-0.72-0.22c-0.15,0-0.24,0.01-0.25,0.04l-1.38,1.68
		h-15.45l-3.58-1.68C359.31,476.61,359.65,476.26,359.96,475.76z"/>
	<path d="M361.41,467.31c-0.21,0.21-0.34,0.42-0.39,0.61c0.79,1,1.53,2.57,2.24,4.71c0.24,0.73,0.58,1.09,1.02,1.09
		c0.44,0,0.85-0.3,1.24-0.91c0.39-0.6,0.59-1.13,0.59-1.58C366.12,469.93,364.55,468.62,361.41,467.31z"/>
</g>
<g fill="#00833E">
	<path d="M311.56,255.42c-4.73,5.29-10.16,9.95-16.17,13.77c8.07,8.05,18.06,14.17,29.19,17.59
		C324.23,274.9,322.44,261.99,311.56,255.42z"/>
	<path d="M366.62,292.32c-4.81,1.43-9.82,2.41-14.97,2.86c-1.85,0-4.45,0.25-6.56,0.25c-7.52,0-14.79-1.11-21.66-3.16
		v104.87h-46.89V277.75c-4.81,1.43-9.82,2.4-14.98,2.82c-1.85,0-4.45,0.37-6.56,0.37c-7.52,0-14.78-1.12-21.65-3.17v119.35h-47.02
		v-51.84c-5.67,1.93-11.64,3.2-17.82,3.72c-1.73,0-4.46,0.37-6.56,0.37c-6.44,0-12.7-0.82-18.69-2.34v50.1h-28.83v28.46h281v-28.46
		h-28.83V292.32z"/>
	<path d="M320.89,242.57c5.38,3.71,9.65,8.32,13.19,14.12l-0.12-37.98l22.52,0.5l-0.12,34.89
		c6.43-9.03,10.89-15.71,24.5-15.84l0.12,16.21c-14.42,5-15.29,18.76-15.44,32.21c28.91-8.84,50.09-36.11,50.09-67.47
		c0-38.85-31.68-70.53-70.53-70.53c-11.29,0-21.98,2.71-31.47,7.48c10.92,13.19,17.49,30.12,17.49,48.57
		C331.1,218.4,327.37,231.35,320.89,242.57z"/>
	<path d="M144.89,332.05c0.37-35.51-7.67-42.44-25.98-60.13l12-16.08c8.41-1.61,21.9,26.11,24.75,33.03v-42.07h20.29
		l0.12,43.8c4.83-10.39,9.03-16.46,18.68-23.14l9.04,12.99l-0.25,0.62c-17.57,9.28-16.7,34.65-17.82,50.98l0.62,7.26
		c25.64-9.56,44.3-33.69,46.07-61.79c-30.98-9.68-53.61-38.7-53.61-72.78c0-0.06,0-0.11,0-0.17c-5.4-1.33-11.03-2.06-16.83-2.06
		c-38.85,0-70.53,31.8-70.53,70.65c0,32.87,22.68,60.6,53.19,68.36L144.89,332.05z"/>
	<path d="M234.68,272.25l-0.09-9.37v-12.37l-1.73-12.25c-0.86-6.93-5.69-22.02-15.22-26.35l-0.24-0.5l9.03-12.99
		c11.01,4.08,16.58,13.12,23.14,25.24c6.06-19.3,10.89-31.43,28.09-40.71l11.51,13.86c-6.19,6.93-11.88,10.89-13.61,20.05
		c9.9-8.66,11.14-8.04,24.13-8.79l0.62,9.03c-4.82,0.5-9.77,1.61-16.21,7.18c-4.7,5.57-7.67,16.21-8.66,23.39l0.25,15.59l0.17,8.79
		c28.75-9.01,49.57-36.08,49.57-67.31c0-38.85-31.55-70.65-70.4-70.65c-38.85,0-70.53,31.8-70.53,70.65
		C184.48,236.52,205.69,263.49,234.68,272.25z"/>
</g>
<g fill="#00833E">
	<path d="M50.85,377.58l0.37,0.74c0.37,0.74,0.5,1.24,0.5,1.73c0,0.5-0.12,0.87-0.37,1.24
		c-0.25,0.25-0.99,0.62-2.1,1.24l-7.18,3.59v-0.12l-4.08-7.92l4.08-2.1l2.97-1.48c1.24-0.62,1.98-0.99,2.23-0.99
		c0.49,0,0.86,0.12,1.24,0.25c0.37,0.37,0.74,0.86,1.11,1.48l0.37,0.74l0.62-0.25l-6.06-12.13l-0.62,0.37l0.37,0.74
		c0.37,0.62,0.5,1.24,0.5,1.73c-0.12,0.5-0.24,0.87-0.37,1.11c-0.25,0.25-0.99,0.75-2.23,1.37l-0.12,0.12l-11.26,5.69l-3.71,1.85
		c-1.11,0.62-1.86,0.87-2.23,0.87c-0.49,0.12-0.87,0-1.11-0.24c-0.5-0.25-0.87-0.74-1.24-1.36l-0.37-0.74l-0.62,0.25l6.06,12
		l0.74-0.25l-0.37-0.74c-0.37-0.74-0.49-1.24-0.49-1.73c0-0.5,0.12-0.87,0.37-1.24c0.25-0.25,0.87-0.62,2.11-1.24l0.87-0.49
		l5.69-2.85l4.08,8.17l-6.56,3.22c-1.11,0.62-1.86,0.99-2.23,0.99c-0.37,0-0.62-0.12-0.99-0.25h-0.13c-0.5-0.37-0.86-0.86-1.24-1.48
		l-0.37-0.74l-0.62,0.25l2.35,4.7l3.83,7.43l0.62-0.37l-0.37-0.74c-0.37-0.62-0.49-1.24-0.49-1.73c0-0.5,0.12-0.87,0.37-1.11
		c0.25-0.25,0.99-0.74,2.1-1.36l5.2-2.6l9.9-5.07c1.24-0.62,1.98-0.87,2.35-0.87c0.37-0.12,0.74,0,1.11,0.25
		c0.37,0.24,0.86,0.74,1.11,1.36l0.5,0.74l0.62-0.25l-6.18-12L50.85,377.58z"/>
	<path d="M86.98,116.88c-0.62,0.12-1.85-0.12-3.47-0.5c-0.25-0.12-0.5-0.25-0.74-0.25l-12.75-3.96l-8.04-2.47l-1.36-0.5
		l-0.25,0.25l1.61,3.47l7.92,17.08c0,0.12,0.12,0.25,0.12,0.37c0.87,1.73,1.24,3.09,1.36,3.84c0.13,0.86-0.12,1.73-0.62,2.47
		l0.49,0.5l5.69-6.43l-0.62-0.5c-0.87,0.86-1.61,1.48-1.98,1.61c-0.62,0.25-1.24,0-1.73-0.37c-0.5-0.37-0.86-0.99-1.24-1.86
		l-1.24-2.47l6.06-6.81l3.34,1.11c0.86,0.25,1.36,0.37,1.36,0.49c0.25,0,0.5,0.13,0.62,0.37c0.37,0.24,0.5,0.49,0.37,0.86
		c0,0.5-0.37,1.11-0.99,1.86l-0.37,0.37l0.5,0.49l2.47-2.72l5.82-6.68l-0.62-0.49C88.22,116.51,87.6,116.88,86.98,116.88z
		 M70.03,125.17l-0.5,0.62L65.45,117l4.58,1.36l4.7,1.48L70.03,125.17z"/>
	<path d="M99.85,94.85c-0.99-0.74-2.1-1.24-3.21-1.36c-1.73-0.25-4.21,0.12-7.42,1.11c-2.23,0.62-3.84,0.99-4.58,1.11
		c-0.37,0.12-0.74,0.12-1.11,0.12c-0.5,0-0.99-0.12-1.36-0.25c-0.5-0.12-0.87-0.37-1.24-0.74c-0.62-0.74-0.99-1.48-0.86-2.6
		c0.12-0.99,0.62-1.98,1.48-2.85c0.62-0.49,1.24-0.86,1.98-1.11c0.87-0.37,1.73-0.62,2.85-0.62c1.98,0,3.84,0.62,5.57,1.98l0.49-0.5
		l-5.94-6.18l-0.5,0.37c0.5,0.75,0.62,1.11,0.62,1.49c0,0.25-0.12,0.5-0.37,0.74c-0.25,0.25-0.74,0.5-1.73,0.74
		c-0.37,0.12-0.74,0.24-0.99,0.37c-0.5,0.12-0.86,0.37-1.11,0.5c-0.74,0.37-1.36,0.87-1.98,1.49c-1.73,1.48-2.6,3.34-2.72,5.44
		c-0.12,2.1,0.5,3.83,1.86,5.44c0.86,0.87,1.85,1.48,2.97,1.85c0.25,0,0.62,0.12,0.99,0.25c0.74,0.12,1.61,0.12,2.6,0.12
		c1.24-0.12,3.22-0.62,5.69-1.36c1.73-0.5,3.09-0.87,3.96-0.87c0.74-0.12,1.49,0,2.1,0.12c0.62,0.25,1.11,0.49,1.61,0.99
		c0.12,0.12,0.25,0.25,0.37,0.5c0.37,0.62,0.62,1.36,0.5,2.35c0,0.62-0.24,1.24-0.5,1.73c-0.37,0.49-0.74,0.99-1.11,1.48
		c-1.36,1.24-3.09,1.86-5.32,1.86c-2.11,0-4.33-0.74-6.56-2.35l-0.62,0.5l6.68,7.05l0.5-0.49c-0.12-0.5-0.25-0.99-0.12-1.36
		c0.12-0.49,0.25-0.87,0.5-0.99c0.37-0.37,0.74-0.62,1.36-0.74c1.11-0.49,1.98-0.87,2.72-1.24c0.62-0.37,1.24-0.86,1.86-1.36
		c0-0.12,0-0.12,0.12-0.12c1.73-1.73,2.72-3.71,2.97-5.94c0.12-2.35-0.5-4.21-1.98-5.82C100.47,95.35,100.22,95.1,99.85,94.85z"/>
	<path d="M58.89,142.99c-0.86-0.5-1.36-0.87-1.49-1.11c-0.24-0.37-0.37-0.74-0.37-1.24c0-0.37,0.25-0.99,0.62-1.85
		l-0.62-0.37l-6.19,10.89l0.5,0.37l0.37-0.62c0.37-0.5,0.74-0.99,1.11-1.24c0.5-0.25,0.87-0.37,1.11-0.25
		c0.37,0,0.99,0.25,1.85,0.74l4.7,2.72c-0.12,0.74-0.37,1.36-0.62,1.98c-0.12,0.62-0.37,1.24-0.74,1.73
		c-0.86,1.61-1.98,2.72-3.47,3.34c-1.36,0.74-3.09,0.86-4.95,0.5c-1.85-0.5-3.96-1.36-6.06-2.6c-0.99-0.5-1.85-1.11-2.6-1.73
		c-0.74-0.62-1.48-1.24-2.23-1.86c-1.36-1.48-2.23-2.97-2.47-4.7c-0.37-1.61,0-3.22,0.99-4.95c0.86-1.48,2.1-2.72,3.71-3.47
		c0.25-0.12,0.5-0.24,0.74-0.37c1.98-0.87,4.21-0.99,6.8-0.5l0.37-0.62l-7.92-4.58v0.12l-0.37,0.49c0.12,0.12,0.24,0.25,0.37,0.37
		c0.25,0.49,0.5,0.86,0.5,1.11c0.12,0.37,0,0.74-0.12,1.11c-0.12,0-0.25,0.12-0.37,0.37c-0.37,0.24-0.74,0.62-1.36,1.11
		c-0.99,0.87-1.73,1.48-2.11,1.98c-0.74,0.74-1.36,1.73-1.98,2.85c-2.1,3.59-2.6,7.18-1.73,10.89c0.99,3.71,3.1,6.56,6.56,8.41
		c0.12,0.12,0.37,0.25,0.62,0.37c1.61,0.86,3.34,1.36,5.08,1.48c1.61,0,3.09-0.13,4.7-0.74c1.48-0.5,2.97-1.24,4.33-2.35
		c1.36-1.11,2.72-2.6,3.96-4.82c0.74-1.24,1.36-2.48,1.85-3.84c0.12-0.37,0.25-0.74,0.37-1.24c0.62-1.73,0.99-3.47,1.24-5.32
		l-1.61-0.87L58.89,142.99z"/>
	<path d="M30.81,326.97c0.12,0,0.24,0.13,0.37,0.13c0.62,0.49,1.11,1.48,1.24,2.84l0.74-0.12l-1.48-9.03l-0.62,0.12
		l0.12,0.62c0.12,0.74,0,1.48-0.37,2.23c0,0,0,0.12-0.13,0.12c-0.37,0.87-1.36,1.24-2.72,1.49l-16.21,2.6l18.43-20.54l-0.12-0.74
		l-21.16,3.47c-1.24,0.12-2.1,0.12-2.6,0c-0.62-0.13-0.99-0.37-1.24-0.62c-0.24-0.37-0.62-1.11-0.86-2.11l-0.74,0.12l1.36,8.41
		l0.74-0.12c-0.25-1.36-0.12-2.47,0.5-3.21c0.5-0.5,1.49-0.87,2.97-1.11l11.01-1.73L6.18,324.87l1.48,9.03l0.74-0.12
		c-0.12-0.74-0.12-1.36,0-1.85c0.12-0.5,0.5-0.99,1.11-1.61l0.62-0.62l17.94-2.97C29.32,326.6,30.19,326.73,30.81,326.97z"/>
	<path d="M460.28,160.43v0.12c-1.36,3.09-1.36,6.43,0,9.77c0.25,0.62,0.49,1.24,0.86,1.86c2.23,4.08,5.32,6.56,9.4,7.18
		c0.87,0.12,1.73,0.25,2.47,0.25c2.23,0,4.45-0.62,6.56-1.73c3.34-1.73,5.57-4.46,6.68-7.92c0.99-3.47,0.5-6.93-1.61-10.52
		c-1.61-3.46-4.21-5.69-7.67-6.8c-1.36-0.37-2.6-0.62-3.96-0.62c-2.11,0-4.21,0.5-6.31,1.61
		C463.62,155.24,461.52,157.59,460.28,160.43z M473.02,158.33c1.86-0.74,3.59-1.11,4.95-1.11c2.72-0.12,4.58,0.87,5.69,2.97
		c0.62,1.11,0.87,2.35,0.74,3.47c-0.12,1.24-0.86,2.47-2.1,3.83c-1.11,1.36-3.22,2.85-6.31,4.46c-0.99,0.62-1.98,1.11-2.97,1.48
		c-1.24,0.5-2.47,0.87-3.59,0.99c-1.86,0.25-3.47,0.12-4.7-0.5c-0.99-0.5-1.73-1.24-2.35-2.35c-0.86-1.73-0.99-3.47-0.12-5.08
		c1.11-2.35,3.59-4.58,7.55-6.68C470.92,159.19,472.03,158.7,473.02,158.33z"/>
	<path d="M17.44,184.81c0.37-0.25,0.99-0.49,1.86-0.74l0.87-0.13l10.64,4.95l5.94,2.72c1.24,0.49,1.98,1.24,2.23,1.98
		c0.25,0.74,0.13,1.73-0.5,3.09l0.74,0.25l2.85-6.06l0.99-2.23l-0.62-0.25l-0.25,0.5c-0.12,0.12-0.12,0.12-0.12,0.25
		c-0.37,0.62-0.99,1.24-1.61,1.48c-0.74,0.5-1.86,0.37-3.22-0.25l-6.43-3.09l-8.42-3.96l8.42-2.11l11.26-2.72l7.18-1.85l0.24-0.62
		l-7.42-3.47l-11.26-5.2l-0.74-0.37c-1.11-0.5-1.86-0.99-2.23-1.36c-0.37-0.37-0.49-0.87-0.62-1.24c0-0.49,0.12-1.24,0.49-2.23
		l-0.62-0.37l-3.71,7.79l0.74,0.24c0.5-1.24,1.24-2.1,2.23-2.35c0.62-0.12,1.73,0.12,3.09,0.74l1.37,0.62l8.66,4.08l-8.66,2.11
		l-11.14,2.72l-3.96,8.29l0.74,0.25C16.7,185.67,17.07,185.18,17.44,184.81z"/>
	<path d="M473.02,190.37c-0.5,0-0.87-0.12-1.11-0.25c-0.74-0.37-1.36-1.24-1.86-2.6l-0.62,0.25l2.97,8.66l0.62-0.25
		l-0.12-0.5c-0.37-0.87-0.37-1.73-0.12-2.47c0.12-0.12,0.12-0.25,0.25-0.5c0.37-0.62,1.24-1.11,2.35-1.48l15.47-5.32l-14.6,23.51
		l0.25,0.62l20.29-7.05c1.11-0.37,1.98-0.5,2.47-0.5c0.62,0,0.99,0.25,1.36,0.5c0.37,0.25,0.74,0.86,1.24,1.85l0.62-0.25l-2.72-8.04
		l-0.75,0.25c0.5,1.36,0.5,2.47,0,3.22c-0.37,0.62-1.24,1.24-2.72,1.73l-10.51,3.59l11.01-17.32l-2.97-8.66l-0.62,0.25
		c0.12,0.74,0.24,1.36,0.24,1.86c-0.12,0.49-0.37,1.11-0.86,1.86l-0.5,0.74l-17.2,5.94C474.14,190.25,473.52,190.37,473.02,190.37z"
		/>
	<path d="M1.98,255.33c0.13-0.62,0.37-1.24,0.62-1.61c0.37-0.37,0.62-0.62,0.99-0.74c0.37-0.13,1.11,0,2.47,0.12
		l16.83,2.35c1.24,0.25,2.1,0.37,2.35,0.62c0.37,0.25,0.62,0.49,0.74,0.87c0.25,0.49,0.25,1.11,0.12,1.85v0.87l0.62,0.12l1.86-12.99
		l-0.74-0.12c-0.12,0.99-0.37,1.73-0.62,2.11c-0.25,0.37-0.62,0.62-0.99,0.74c-0.37,0.12-1.11,0-2.47-0.12l-7.05-0.99l-0.62-1.11
		l8.16-4.82c1.61-0.87,2.72-1.36,3.22-1.24c0.37,0,0.49,0.12,0.74,0.37c0.12,0.37,0.12,0.87,0.12,1.73l0.74,0.13l1.73-12.87
		l0.12-0.5h-0.12h-0.62c-0.12,0.74-0.37,1.36-0.86,1.98c-0.74,0.87-1.98,1.73-3.71,2.85l-12.5,7.43l-4.95-8.42
		c-1.24-1.98-1.98-3.34-2.11-3.83c-0.25-0.5-0.25-1.24-0.25-2.23H5.19l-1.48,9.9l0.74,0.12c0.25-1.11,0.37-1.73,0.49-1.98
		c0.37-0.5,0.87-0.74,1.36-0.74c0.62,0.12,1.36,0.87,2.23,2.35l6.31,10.64l-7.92-1.11c-1.36-0.25-2.1-0.37-2.35-0.62
		c-0.37-0.24-0.74-0.5-0.87-0.86c-0.12-0.5-0.12-1.24,0-2.1H2.97l-1.73,12.62l0.62,0.12L1.98,255.33z"/>
	<path d="M119.77,80.62c-0.99-1.36-2.35-2.23-3.96-2.6c-1.61-0.37-4.08-0.24-7.43,0.5c-2.35,0.5-3.83,0.74-4.58,0.74
		c-0.99,0-1.86,0-2.47-0.25c-0.5-0.24-0.99-0.5-1.36-0.99c0-0.12-0.13-0.24-0.13-0.37c-0.37-0.62-0.49-1.36-0.37-2.23
		c0-0.37,0.12-0.75,0.37-1.11c0.25-0.5,0.74-1.11,1.36-1.61c1.36-0.99,2.97-1.49,4.95-1.36c1.98,0.25,3.71,0.99,5.32,2.47l0.62-0.49
		l-5.44-6.68l-0.5,0.37c0.37,0.74,0.5,1.24,0.5,1.49c0,0.37-0.12,0.5-0.37,0.74c-0.37,0.25-0.86,0.37-1.86,0.62
		c-0.87,0.25-1.61,0.5-2.23,0.75c-0.74,0.24-1.48,0.74-2.1,1.23c-0.12,0-0.25,0.12-0.25,0.25c-1.73,1.36-2.6,2.97-2.97,4.95
		c-0.24,2.1,0.25,3.96,1.49,5.57c0.5,0.5,0.87,0.99,1.48,1.36c0.37,0.25,0.74,0.5,1.24,0.74c0.99,0.37,2.23,0.62,3.59,0.62
		c1.24,0,3.21-0.25,5.69-0.74c1.85-0.37,3.22-0.62,4.08-0.62c0.74,0,1.48,0.13,2.11,0.37c0.62,0.25,1.11,0.62,1.48,1.11
		c0.62,0.87,0.87,1.73,0.74,2.97c-0.24,1.11-0.86,2.1-1.98,2.97c-1.48,1.11-3.34,1.61-5.44,1.48c-2.1-0.12-4.21-1.11-6.44-2.97
		l-0.49,0.37l5.94,7.67l0.62-0.37c-0.12-0.49-0.12-0.99,0-1.48c0.12-0.37,0.24-0.74,0.62-0.87c0.25-0.24,0.74-0.5,1.36-0.74
		c1.11-0.25,2.1-0.62,2.72-0.87c0.62-0.37,1.36-0.74,1.98-1.24c1.36-1.11,2.35-2.35,2.97-3.71c0.25-0.62,0.5-1.36,0.62-2.11
		c0.25-1.73,0.12-3.22-0.62-4.7C120.39,81.49,120.14,81,119.77,80.62z"/>
	<path d="M0.86,283.17c-0.12,1.11-0.12,2.23-0.12,3.47c0.37,4.21,1.86,7.55,4.82,10.02c2.85,2.47,6.19,3.71,10.02,3.34
		c2.23-0.12,4.08-0.62,5.81-1.73c1.37-0.74,2.48-1.86,3.47-3.09c0.99-1.36,1.73-2.85,2.35-4.45c0.49-1.73,0.74-3.71,0.49-6.19
		c-0.12-1.85-0.37-3.71-0.87-5.44c-0.49-1.73-1.24-3.47-2.1-5.07l-5.32,0.37c-0.99,0.12-1.48,0.12-1.73,0
		c-0.5-0.25-0.87-0.5-1.11-0.87c-0.24-0.37-0.37-0.99-0.49-1.85h-0.74l0.86,12.5h0.74v-0.74c-0.12-0.62,0-1.11,0.25-1.61
		c0.13-0.37,0.37-0.74,0.74-0.86c0.25-0.12,0.86-0.25,1.85-0.37l5.44-0.37c0.25,0.62,0.5,1.36,0.74,1.98
		c0.12,0.62,0.25,1.24,0.25,1.86c0.12,1.85-0.12,3.34-0.99,4.7c-0.74,1.36-2.1,2.47-3.84,3.09c-1.85,0.74-3.96,1.24-6.43,1.36
		c-2.11,0.13-4.08,0-6.06-0.37c-1.98-0.37-3.59-1.24-4.7-2.35c-1.24-1.24-1.86-2.85-1.98-4.7c-0.12-2.1,0.37-3.96,1.61-5.69
		c1.11-1.85,2.97-3.22,5.32-4.21v-0.74L0,275.75l0.12,0.75c0.74,0.12,1.24,0.37,1.49,0.74c0.25,0.25,0.5,0.62,0.5,0.87
		c0,0.24-0.25,0.99-0.62,2.35C1.11,281.69,0.86,282.68,0.86,283.17z"/>
	<path d="M30.68,363.72h0.13c3.21-1.11,5.56-2.97,7.3-5.57c2.22-3.34,2.6-7.3,1.24-11.76c-1.48-4.33-4.21-7.3-8.04-8.66
		c-0.12,0-0.37-0.12-0.49-0.12c-2.85-0.86-5.69-0.86-8.66,0.12c-3.59,1.11-6.31,3.34-7.92,6.56c-1.61,3.22-1.73,6.81-0.25,10.64
		c0.99,3.71,3.09,6.31,6.31,8.04C23.51,364.71,26.97,364.96,30.68,363.72z M20.17,358.4c-2.72-0.5-4.45-1.73-5.2-4.08
		c-0.37-1.11-0.37-2.35,0-3.47c0.37-1.24,1.24-2.35,2.6-3.47c1.49-1.11,3.83-2.23,7.05-3.22c2.35-0.86,4.46-1.24,6.19-1.36
		c0.24,0,0.49,0,0.74,0c1.85,0.12,3.34,0.5,4.45,1.36c0.87,0.62,1.61,1.48,1.98,2.72c0.62,1.86,0.37,3.59-0.74,5.07
		c-1.24,1.73-3.34,3.22-6.43,4.46c-0.62,0.24-1.37,0.5-2.11,0.74C25.11,358.28,22.27,358.77,20.17,358.4z"/>
	<path d="M18.43,223.41c3.34,0.99,6.43,0.86,9.4-0.37c1.11-0.37,2.11-0.99,2.97-1.73c2.22-1.61,3.71-4.08,4.7-7.18
		c1.36-4.45,0.74-8.29-1.61-11.76c-0.87-1.11-1.86-2.23-3.09-3.09c-1.24-0.87-2.73-1.61-4.33-2.1c-3.71-1.11-7.05-0.87-10.27,0.86
		c-3.21,1.73-5.32,4.58-6.43,8.54c-1.24,3.59-0.99,7.05,0.62,10.27C12.12,220.07,14.85,222.3,18.43,223.41z M11.01,206.71
		c0.37-1.24,1.11-2.23,1.98-2.97c0.99-0.74,2.35-1.11,4.21-1.24c1.73-0.12,4.33,0.37,7.55,1.36c2.6,0.74,4.58,1.61,6.07,2.6
		c0.12,0.12,0.24,0.24,0.37,0.24c1.49,1.11,2.48,2.35,2.97,3.71c0.37,0.99,0.37,2.11,0,3.34c-0.62,1.86-1.73,3.1-3.34,3.71h-0.13
		c-2.47,0.87-5.82,0.62-10.02-0.62c-3.59-1.11-6.19-2.35-7.8-3.96C11.01,211.04,10.39,208.93,11.01,206.71z"/>
	<path d="M382.33,52.66l0.74,0.37c0.62,0.37,0.99,0.87,1.24,1.24c0.25,0.5,0.37,0.87,0.25,1.24
		c0,0.37-0.37,1.11-1.11,2.23l-9.03,14.35c-0.62,1.11-1.11,1.73-1.36,1.98c-0.37,0.25-0.74,0.37-1.11,0.37
		c-0.49-0.12-0.86-0.25-1.36-0.37c-0.12-0.12-0.25-0.25-0.5-0.25l-0.62-0.49l-0.37,0.62l1.49,0.87l9.9,6.18l0.37-0.49l-0.74-0.5
		c-0.62-0.37-0.99-0.74-1.24-1.24c-0.24-0.37-0.37-0.87-0.24-1.24c0-0.25,0.37-0.99,1.11-2.1l4.21-6.81l0.62,0.49
		c1.11,0.62,1.98,1.61,2.47,2.85c0.5,1.24,0.13,2.97-0.86,5.2l0.5,0.37l6.93-11.01l-0.62-0.37c-0.87,1.11-1.73,1.85-2.6,2.23
		c-0.87,0.5-1.61,0.62-2.48,0.5c-0.74,0-1.61-0.37-2.6-0.99l-0.62-0.37l5.57-9.03l2.1,1.24c1.73,1.11,2.84,1.98,3.34,2.47
		c0.99,1.11,1.61,2.1,1.85,3.22c0.12,1.11-0.12,2.47-0.99,3.96l0.74,0.49l3.84-6.31L382.7,52.04L382.33,52.66z"/>
	<path d="M137.59,51.67c-1.24-0.37-2.6-0.5-3.83-0.5c-2.23,0.12-4.46,0.87-6.68,2.23c-3.22,1.61-5.32,3.96-6.43,7.18
		c-0.12,0.25-0.12,0.37-0.25,0.62c-0.74,2.72-0.74,5.45,0.25,8.04c0.25,0.75,0.62,1.49,0.99,2.23c1.73,2.97,3.96,5.07,6.93,6.31
		c1.73,0.62,3.47,0.99,5.2,0.86c2.1,0,4.33-0.74,6.56-1.98c4.08-2.23,6.43-5.44,7.05-9.53c0.37-3.09-0.12-6.06-1.73-8.91
		C143.77,54.77,141.05,52.66,137.59,51.67z M141.92,73.08c-0.37,0.99-1.24,1.73-2.35,2.35c-1.73,0.99-3.34,1.11-5.07,0.24
		c-0.25-0.12-0.5-0.24-0.74-0.37c-2.11-1.24-4.08-3.59-5.94-7.05c-1.85-3.22-2.85-5.94-2.85-8.17c-0.12-2.72,0.87-4.58,2.97-5.69
		c1.11-0.74,2.23-0.87,3.47-0.74c0.74,0,1.49,0.37,2.35,0.87c0.49,0.25,0.99,0.62,1.48,0.99c1.36,1.24,2.85,3.34,4.58,6.31
		c1.36,2.47,2.23,4.7,2.6,6.56C142.66,70.23,142.54,71.84,141.92,73.08z"/>
	<path d="M327.76,29.52c1.36,0.37,2.23,0.99,2.6,1.85c0.24,0.62,0.24,1.73-0.25,3.22l-3.09,10.64l-7.79-18.93
		l-8.79-2.47l-0.24,0.62c0.74,0.24,1.36,0.62,1.73,0.86c0.24,0.37,0.62,0.87,0.99,1.73l0.37,0.86l-5.07,17.45
		c-0.37,1.36-0.87,2.23-1.49,2.6c-0.74,0.37-1.73,0.37-3.09,0l-0.25,0.62l8.79,2.6l0.13-0.74l-0.62-0.13
		c-0.74-0.25-1.48-0.74-1.98-1.36c-0.49-0.74-0.49-1.73-0.12-3.22l4.46-15.72l10.89,25.49l0.62,0.12l5.94-20.66
		c0.37-1.11,0.74-1.98,0.99-2.35c0.37-0.5,0.74-0.74,1.11-0.87c0.5-0.12,1.24-0.12,2.35,0.12l0.12-0.74l-8.16-2.35L327.76,29.52z"/>
	<path d="M370.82,59.71c1.61-3.59,1.73-6.93,0.37-10.39c-0.12-0.5-0.37-0.87-0.62-1.36c-1.49-2.72-3.71-4.7-7.05-5.94
		c-1.73-0.86-3.47-1.36-5.2-1.48c-1.61,0-3.34,0.25-5.07,0.87c-3.34,1.24-5.94,3.59-7.42,7.18c-1.36,3.09-1.73,6.19-0.87,9.28
		c0.99,3.96,3.71,6.8,7.92,8.66c1.86,0.87,3.71,1.36,5.44,1.36c2.23,0.12,4.33-0.37,6.44-1.49c2.6-1.36,4.45-3.46,5.82-6.06
		C370.7,60.09,370.82,59.84,370.82,59.71z M364.39,57.24c-1.11,2.6-2.35,4.58-3.59,5.94c-0.87,0.87-1.61,1.48-2.47,1.98
		c-0.49,0.25-0.99,0.37-1.48,0.5c-1.11,0.25-2.23,0.12-3.47-0.37c-1.73-0.87-2.84-2.1-3.21-3.96c-0.5-2.48,0.12-5.82,1.85-9.78
		c1.49-3.47,3.1-5.82,4.83-7.18c0.49-0.5,0.99-0.75,1.48-0.99c1.61-0.87,3.22-0.87,4.95-0.12c1.11,0.5,2.1,1.24,2.6,2.23
		c0.62,1.11,0.86,2.47,0.86,4.33C366.62,51.67,365.87,54.02,364.39,57.24z"/>
	<path d="M458.55,141.5c0.62,0.49,1.11,0.87,1.73,1.24c0.62,0.37,1.24,0.5,1.86,0.62c1.86,0.5,3.47,0.12,5.07-0.99
		c1.24-0.99,2.1-2.11,2.48-3.59c0.37-1.36,0.37-2.85-0.13-4.21c-0.5-1.48-1.73-3.47-3.59-5.94l-5.69-7.92l-1.36-1.85l-0.5,0.5
		c0.62,0.86,0.99,1.61,1.11,2.1c0.12,0.49,0,0.87-0.12,1.24c-0.25,0.37-0.87,0.99-1.98,1.73l-11.63,8.41l-1.98,1.48
		c-1.12,0.74-1.86,1.24-2.23,1.36c-0.37,0-0.87,0-1.24-0.25c-0.5-0.25-0.99-0.87-1.73-1.73l-0.62,0.37l7.8,10.64l0.62-0.37
		c-0.25-0.25-0.37-0.62-0.62-0.87c-0.37-0.5-0.5-0.99-0.62-1.24c0-0.5,0-0.99,0.25-1.24c0-0.12,0.25-0.37,0.37-0.5
		c0.37-0.37,0.87-0.74,1.61-1.36l5.82-4.21l0.99,1.36l-4.58,13.61l4.7,6.68l0.62-0.49c-0.37-0.5-0.5-1.11-0.5-1.85
		c0-0.37,0.25-1.24,0.62-2.6L458.55,141.5z M454.34,134.2l5.94-4.33l3.21-2.35l1.24,1.61c1.11,1.73,1.61,3.22,1.48,4.46
		c-0.24,1.24-1.24,2.47-2.72,3.71c-1.11,0.74-2.23,1.24-3.21,1.24c0,0.12,0,0.12,0,0.12c-0.99,0-1.86-0.25-2.6-0.74
		c-0.74-0.5-1.61-1.49-2.72-2.85L454.34,134.2z"/>
	<path d="M441.35,124.43c-2.23,1.11-4.21,1.48-5.94,1.11c-1.85-0.37-3.46-1.36-5.07-3.21l-1.11-1.11
		c-0.5-0.62-0.74-0.99-0.87-1.36c0-0.37,0-0.74,0.12-1.11c0.25-0.25,0.87-0.86,1.86-1.85l5.44-4.83c0.74,0.87,1.36,1.73,1.48,2.35
		c0.25,0.75,0.13,1.61-0.25,2.6c-0.37,0.99-1.11,1.98-2.1,3.09l0.49,0.62l10.02-9.16l-0.37-0.5c-1.73,1.24-3.1,1.86-4.34,1.98
		c-1.36,0.12-2.47-0.37-3.59-1.61l-0.37-0.37l7.79-7.05l1.24,1.36l0.62,0.62c1.24,1.48,2.11,2.6,2.35,3.21
		c0.62,1.24,0.74,2.23,0.62,3.34c-0.12,0.99-0.87,2.35-1.98,3.84l0.49,0.5l5.69-5.07l-7.79-8.66l-6.68-7.43l-0.49,0.5l0.62,0.62
		c0.49,0.62,0.87,1.24,0.87,1.85c0,0.37,0,0.87-0.25,1.24c-0.24,0.12-0.74,0.74-1.61,1.48l-11.75,10.64l-0.87,0.74
		c-0.87,0.87-1.61,1.36-1.85,1.36c-0.5,0.24-0.87,0.24-1.24,0.12c-0.5-0.25-0.99-0.5-1.48-1.11l-0.62-0.62l-0.5,0.5l6.56,7.18
		l8.41,9.4l6.8-4.7L441.35,124.43z"/>
	<path d="M421.55,102.16c0.37-0.25,0.87-0.25,1.24-0.25c0.5,0.12,0.99,0.5,1.73,1.11l0.5-0.62l-9.4-8.17l-0.5,0.49
		l0.5,0.5c0.49,0.37,0.74,0.87,0.99,1.24c0.12,0.5,0.12,0.86,0.12,1.24c-0.12,0.24-0.5,0.86-1.11,1.61l-3.59,4.08
		c-0.62-0.24-1.36-0.62-1.85-0.86c-0.62-0.37-1.11-0.74-1.61-1.11c-1.36-1.24-2.23-2.6-2.6-4.08c-0.5-1.48-0.25-3.21,0.49-4.95
		c0.86-1.73,1.98-3.59,3.59-5.44c1.37-1.61,2.97-2.97,4.58-4.08c1.73-1.11,3.34-1.61,5.08-1.61c1.61,0,3.21,0.74,4.7,1.98
		c0.87,0.74,1.61,1.61,2.11,2.72c0.37,0.74,0.62,1.48,0.74,2.35c0.5,2.1,0.25,4.33-0.74,6.81L427,95.6l5.94-6.93l-0.49-0.37
		c-0.62,0.37-1.24,0.5-1.61,0.5c-0.37,0-0.74-0.12-0.99-0.37c-0.12-0.12-0.62-0.74-1.24-1.98c-0.62-1.11-1.11-1.98-1.49-2.47
		c-0.12-0.25-0.37-0.5-0.62-0.74c-0.5-0.62-1.11-1.11-1.73-1.73c-3.22-2.72-6.68-3.96-10.39-3.71c-3.83,0.24-7.05,1.85-9.65,4.7
		c-1.37,1.73-2.35,3.47-2.85,5.32c-0.37,1.48-0.37,3.09-0.12,4.7c0.12,1.61,0.74,3.22,1.49,4.82c0.74,1.61,2.1,3.1,3.96,4.7
		c1.36,1.36,2.97,2.35,4.58,3.22c1.49,0.99,3.22,1.61,4.95,2.23l3.47-4.08C420.81,102.65,421.31,102.28,421.55,102.16z"/>
	<path d="M226.05,45.86c-0.62,0-1.11-0.12-1.61-0.5c-0.62-0.37-1.49-1.48-2.72-3.34l-12.5-19.43h-0.37l-5.94,21.78
		c-0.5,2.1-0.99,3.47-1.49,4.21c-0.49,0.74-1.24,1.24-2.1,1.48l0.12,0.74l8.41-1.36l-0.12-0.74c-1.24,0.12-2.1,0.12-2.47,0
		c-0.62-0.25-0.99-0.74-1.11-1.48c-0.12-0.5-0.12-1.24,0.12-2.1l0.74-2.6l4.21-0.74l4.82-0.74l1.85,2.97
		c0.37,0.74,0.74,1.24,0.74,1.36c0.13,0.12,0.13,0.37,0.25,0.62c0,0.37-0.12,0.74-0.37,0.99c-0.25,0.25-0.99,0.5-1.98,0.75h-0.49
		l0.12,0.74l11.88-1.86l0.5-0.12l-0.13-0.62C226.3,45.86,226.18,45.86,226.05,45.86z M209.23,40.29l-3.84,0.62l2.6-9.4l1.24,2.11
		l3.96,6.18L209.23,40.29z"/>
	<path d="M195.5,51.92c-0.75,0.25-1.24,0.25-1.73,0.12c-0.5-0.12-0.86-0.37-1.11-0.62c-0.25-0.25-0.49-0.99-0.86-2.35
		l-4.7-16.34c-0.37-1.24-0.5-1.98-0.5-2.35c0.13-0.5,0.25-0.74,0.5-1.11c0.37-0.37,0.99-0.62,1.73-0.87l0.74-0.25l-0.12-0.62
		l-12.62,3.59l-0.37,0.12l0.12,0.62h0.24l0.62-0.12c0.74-0.25,1.24-0.25,1.73-0.12c0.5,0.12,0.87,0.25,1.11,0.5
		c0.24,0.37,0.5,1.11,0.86,2.35l4.7,16.33c0.37,1.24,0.5,2.1,0.37,2.35c0,0.49-0.13,0.86-0.37,1.11c-0.37,0.37-0.99,0.74-1.73,0.87
		l-0.74,0.25l0.12,0.74l12.99-3.83l-0.12-0.62L195.5,51.92z"/>
	<path d="M176.44,52.54c-0.86,2.1-1.73,3.71-2.72,4.95c-0.99,1.11-2.23,1.98-3.83,2.6c-1.86,0.62-3.47,0.74-4.95,0.37
		c-1.61-0.5-2.97-1.49-4.21-3.09c-1.11-1.48-2.23-3.47-2.97-5.57c-0.86-2.23-1.24-4.33-1.24-6.44c0-1.61,0.5-3.09,1.49-4.46
		c0.86-1.36,2.1-2.22,3.59-2.84c1.86-0.74,3.71-0.74,5.57-0.12c1.86,0.62,3.47,1.98,4.83,3.96l0.62-0.37l-3.09-8.29l-0.74,0.24
		c0.13,0.62,0.13,1.11,0,1.49c-0.24,0.49-0.49,0.74-0.86,0.87c-0.25,0.12-1.11,0.12-2.35,0.12c-2.1,0-4.08,0.37-5.82,0.99
		c-2.23,0.87-4.21,2.23-5.82,4.21c-1.61,1.85-2.6,4.08-2.97,6.68c-0.5,2.47-0.25,4.95,0.62,7.18c0.86,2.23,2.23,4.08,4.08,5.57
		c1.73,1.48,3.84,2.35,6.31,2.72c2.35,0.25,4.82-0.12,7.42-1.11c1.98-0.74,3.47-1.73,4.7-2.97c1.11-0.99,1.98-2.23,2.72-3.83
		c0.13-0.25,0.25-0.5,0.37-0.87l-0.37-0.99L176.44,52.54z"/>
	<path d="M289.16,20.49c-0.5-0.12-0.99-0.12-1.36-0.25c-3.21-0.25-6.06,0.62-8.66,2.6c-2.85,2.23-4.58,5.2-5.08,9.03
		c-0.37,3.34,0.25,6.43,1.98,9.16c2.11,3.47,5.44,5.44,10.15,6.06c0.5,0,0.99,0,1.61,0.12c3.84,0.12,7.05-1.11,9.65-3.84
		c2.23-2.23,3.47-4.95,3.83-8.17c0.5-3.84-0.37-7.18-2.6-10.02C296.46,22.35,293.24,20.74,289.16,20.49z M294.48,34.72
		c-0.37,2.85-0.99,5.07-1.73,6.8c-0.86,1.73-1.85,2.85-3.09,3.59c-0.62,0.24-1.24,0.49-1.85,0.49c-0.5,0.12-0.99,0.12-1.48,0
		c-1.98-0.25-3.34-1.11-4.33-2.72c-1.24-2.35-1.61-5.57-1.11-10.02c0.49-3.59,1.36-6.43,2.6-8.29c1.12-1.73,2.6-2.72,4.33-2.84
		c0.37-0.12,0.87-0.12,1.49,0c1.24,0.12,2.35,0.62,3.21,1.36c0.87,0.87,1.49,2.1,1.98,3.96C294.85,28.78,294.85,31.38,294.48,34.72z
		"/>
	<path d="M226.05,20.24h-0.49l0.49,6.81v0.24l0.74-0.12c0.12-1.86,0.74-3.34,1.73-4.46c0.74-0.87,1.98-1.24,3.71-1.36
		l1.86-0.12l1.36,19.8c0.12,1.36,0.12,2.1,0,2.47s-0.37,0.74-0.74,0.87c-0.37,0.37-0.99,0.49-1.73,0.62h-0.87v0.74l13.49-0.99v-0.62
		h-0.86c-0.74,0-1.36,0-1.73-0.25c-0.5-0.25-0.74-0.5-0.99-0.74c-0.12-0.37-0.25-1.24-0.37-2.47l-1.36-19.92l1.86-0.12
		c1.24-0.12,2.1,0,2.6,0.12c0.86,0.37,1.61,0.87,2.1,1.61c0.62,0.62,1.11,1.73,1.61,3.34h0.74l-0.5-7.05L226.05,20.24z"/>
	<path d="M255.13,19.5H256c0.74,0,1.24,0.12,1.73,0.37c0.37,0.25,0.62,0.62,0.74,0.87c0.24,0.37,0.24,1.24,0.24,2.47
		l-0.37,17.08c0,1.24,0,2.11-0.25,2.35c-0.12,0.37-0.37,0.74-0.74,0.87c-0.5,0.25-1.11,0.37-1.85,0.37h-0.87v0.74l13.49,0.25
		l0.12-0.74h-0.86c-0.74,0-1.36-0.12-1.73-0.37c-0.5-0.25-0.75-0.62-0.87-0.87c-0.12-0.37-0.25-1.24-0.12-2.47l0.24-17.08
		c0-1.24,0.12-2.1,0.25-2.35c0.25-0.5,0.5-0.74,0.74-0.87c0.5-0.25,1.11-0.37,1.86-0.37h0.86v-0.74l-13.49-0.25V19.5z"/>
	<path d="M506.68,246.06c-2.47-2.11-5.44-3.1-8.78-3.1c-0.37,0-0.75,0-1.11,0.12c-3.47,0.25-6.31,1.49-8.54,3.71
		c-2.97,2.85-4.21,6.56-3.84,11.14c0.5,4.7,2.35,8.04,5.94,10.27c2.23,1.49,4.82,2.23,7.55,2.23c0.37,0,0.86,0,1.23-0.13
		c3.84-0.24,6.93-1.85,9.28-4.58c2.23-2.85,3.22-6.31,2.72-10.39C510.89,251.62,509.4,248.53,506.68,246.06z M509.89,255.71
		c0.12,1.24-0.12,2.47-0.74,3.47c-0.62,1.11-1.73,1.98-3.34,2.72c-1.61,0.86-4.21,1.36-7.55,1.61c-0.12,0-0.25,0.12-0.37,0.12
		c-2.72,0.12-4.95,0-6.68-0.37c-1.86-0.5-3.22-1.24-4.08-2.35c-0.74-0.74-1.11-1.85-1.24-3.09c-0.25-1.98,0.37-3.59,1.73-4.7
		c1.98-1.73,5.2-2.85,9.53-3.22c0.25,0,0.5,0,0.75,0c3.34-0.25,5.94,0,7.92,0.74C508.29,251.62,509.65,253.36,509.89,255.71z"/>
	<path d="M511.38,277.48l-0.13,0.86c0,0.74-0.25,1.24-0.5,1.73c-0.24,0.37-0.49,0.62-0.87,0.74
		c-0.37,0.12-1.24,0.12-2.47,0l-9.52-0.62l-7.43-0.5c-1.36-0.12-2.1-0.25-2.35-0.37c-0.49-0.25-0.74-0.49-0.87-0.87
		c-0.24-0.49-0.37-1.11-0.37-1.85l0.13-0.87h-0.75l-1.61,22.89l9.03,1.61v-0.87c-1.98-0.74-3.46-1.36-4.45-2.1
		c-0.99-0.74-1.73-1.61-2.1-2.6c-0.37-0.99-0.62-2.1-0.5-3.47l0.12-2.1c0.12-1.24,0.25-1.98,0.37-2.35c0.25-0.37,0.5-0.62,0.86-0.74
		c0.37-0.12,1.24-0.25,2.6-0.12l7.3,0.5l9.03,0.62c1.36,0.12,2.1,0.25,2.35,0.37c0.49,0.24,0.74,0.5,0.87,0.86
		c0.25,0.5,0.37,1.11,0.37,1.86l-0.12,1.11l0.74,0.12l0.87-13.86H511.38z"/>
	<path d="M497.4,213.51l0.12,0.74c0.12,0,0.25,0,0.37,0c1.73,0,3.21,0.37,4.33,1.24c0.86,0.62,1.48,1.73,1.85,3.47
		l0.37,1.85l-6.55,1.24l-12.99,2.6c-1.24,0.25-2.11,0.25-2.35,0.25c-0.49-0.12-0.86-0.37-1.11-0.62c-0.37-0.37-0.62-0.99-0.74-1.73
		l-0.12-0.87l-0.75,0.25l2.6,13.24l0.74-0.12l-0.25-0.86c-0.13-0.74-0.13-1.36,0.12-1.86c0.13-0.37,0.37-0.74,0.62-0.99
		c0.37-0.13,1.11-0.37,2.35-0.62l11.88-2.35l7.67-1.48l0.37,1.86c0.24,1.24,0.37,2.1,0.24,2.6c-0.24,0.86-0.74,1.73-1.36,2.35
		c-0.5,0.62-1.61,1.24-3.1,1.98l0.13,0.62l6.8-1.36l-4.33-22.64l-6.43,1.24H497.4z"/>
	<path d="M488.12,378.32c-0.62,0.25-2.1,0.37-4.58,0.5l-12.62,0.37l-4.58-2.35c-1.24-0.62-1.85-0.99-2.1-1.24
		c-0.25-0.37-0.37-0.74-0.5-1.11c0-0.5,0.12-1.11,0.5-1.86l0.62-1.11l-0.62-0.37l-6.56,12.87l0.62,0.37l0.62-1.24
		c0.37-0.62,0.74-1.11,1.11-1.36c0.37-0.25,0.74-0.37,1.11-0.37c0.37,0,1.11,0.37,2.35,0.99l5.57,2.85l5.82,9.15
		c1.48,2.35,2.35,3.84,2.47,4.7c0.12,0.62,0,1.24-0.25,2.1l0.62,0.25l3.59-6.93l-0.62-0.37c-0.62,0.99-1.11,1.61-1.61,1.86
		c-0.37,0.25-0.62,0.25-0.99,0.12c-0.5-0.37-1.36-1.49-2.6-3.34l-4.83-7.67l9.78-0.25c2.1-0.12,3.34,0,3.71,0.25
		c0.24,0,0.37,0.25,0.5,0.62c0,0.37-0.12,0.87-0.5,1.61l-0.25,0.5l0.62,0.25l5.69-11.01l-0.62-0.25
		C489.11,377.58,488.74,378.08,488.12,378.32z"/>
	<path d="M497.9,306.56c-0.5-0.12-0.99-0.24-1.49-0.37c-3.34-0.5-6.43,0-9.16,1.61c-3.46,2.11-5.57,5.32-6.31,9.9
		c-0.74,4.58,0.25,8.41,3.22,11.38c2.1,2.35,4.82,3.71,8.04,4.21c1.98,0.37,3.96,0.25,5.69-0.12c1.48-0.5,2.97-1.11,4.33-2.1
		c2.97-2.23,4.7-5.32,5.19-9.4c0.74-3.71,0-7.05-2.1-10.02C503.46,309.03,500.99,307.3,497.9,306.56z M506.18,321.66
		c-0.24,1.36-0.74,2.35-1.61,3.21c-0.86,0.86-2.1,1.48-3.96,1.85c-0.75,0.12-1.61,0.25-2.72,0.25c-1.37,0-3.1-0.25-4.95-0.49
		c-2.85-0.5-5.07-1.11-6.81-1.98c-1.61-0.87-2.72-1.98-3.34-3.22c-0.49-0.99-0.62-2.1-0.49-3.34c0.37-1.98,1.24-3.34,2.97-4.21
		c2.23-1.11,5.57-1.36,9.9-0.74c0.99,0.12,1.86,0.37,2.72,0.5c2.35,0.62,4.21,1.36,5.57,2.35
		C505.57,317.45,506.56,319.43,506.18,321.66z"/>
	<path d="M497.52,346.65c-1.73-3.47-4.45-5.81-8.17-6.93c-1.98-0.74-3.96-0.87-5.94-0.62
		c-1.48,0.25-2.97,0.87-4.46,1.61c-1.36,0.86-2.6,1.98-3.71,3.34c-1.24,1.24-2.1,3.09-2.84,5.44c-0.62,1.85-0.99,3.71-1.24,5.44
		c-0.12,1.86-0.12,3.59,0,5.44l5.07,1.61c0.99,0.37,1.49,0.62,1.73,0.74c0.37,0.37,0.5,0.75,0.62,1.11c0,0.5,0,1.11-0.25,1.98
		l0.62,0.25l3.96-11.88l-0.74-0.25l-0.12,0.62c-0.25,0.62-0.49,1.11-0.87,1.36c-0.37,0.37-0.74,0.62-1.11,0.62
		c-0.25,0-0.86-0.12-1.85-0.37l-5.07-1.73c-0.12-0.74-0.12-1.36,0-2.11c0.12-0.62,0.24-1.24,0.37-1.85
		c0.62-1.61,1.49-2.97,2.72-3.96c1.24-0.99,2.85-1.48,4.82-1.48c1.86,0.12,4.08,0.5,6.44,1.24c1.98,0.62,3.71,1.48,5.44,2.6
		c1.61,1.11,2.85,2.47,3.46,3.96c0.62,1.61,0.62,3.34,0,5.07c-0.62,1.98-1.73,3.59-3.46,4.7c-1.86,1.24-3.96,1.85-6.68,1.98
		l-0.12,0.62l8.66,2.85l0.12-0.74c-0.62-0.37-0.99-0.87-1.11-1.24c-0.13-0.37-0.13-0.74,0-0.99c0-0.25,0.49-0.87,1.36-1.98
		c0.74-0.99,1.36-1.73,1.61-2.23c0.37-0.74,0.74-1.61,1.11-2.47c0.12-0.25,0.12-0.5,0.24-0.74c1.24-3.59,1.11-7.05-0.24-10.27
		C497.77,347.14,497.65,346.9,497.52,346.65z"/>
</g>
</svg>
